#!OML:ASF E:\acrobat2\Project_11_07_03\Capture day 1\Session 1\Acrobat.ASF
:FULLY-SPECIFIED
:DEGREES
154
root 10.8283 28.0557 37.7698 7.35324 3.56762 -1.06384
lowerback -0.0495716 2.04032 1.56396
upperback 2.8645 2.74838 -1.95859
thorax 3.14373 1.44205 -2.81216
lowerneck 3.19699 -1.64044 -1.03004
upperneck 17.9506 -2.53515 2.69671
head 4.91312 -1.13751 0.929487
rclavicle 5.56597e-015 -2.78299e-015
rhumerus -39.8717 -7.78869 -76.1795
rradius 34.8303
rwrist 5.43557
rhand -3.12604 -23.1669
rfingers 7.12502
rthumb 22.593 -51.8647
lclavicle 5.56597e-015 -2.78299e-015
lhumerus -27.7266 -9.97988 84.4846
lradius 29.5685
lwrist 9.73722
lhand -12.383 -12.6509
lfingers 7.12502
lthumb 13.6879 16.879
rfemur -9.93288 -1.67261 19.9985
rtibia 16.7349
rfoot -17.2298 -13.8129
rtoes -21.4303
lfemur -14.2569 -2.71268 -19.3102
ltibia 21.1898
lfoot -11.2906 -8.09316
ltoes 18.7036
155
root 10.8283 28.0568 37.7529 7.36186 3.40934 -0.993128
lowerback 0.0631167 2.08783 1.44644
upperback 2.87061 2.815 -1.98663
thorax 3.08617 1.47219 -2.77724
lowerneck 3.04566 -1.66139 -1.03269
upperneck 18.0798 -2.56796 2.70769
head 4.97899 -1.15071 0.930688
rclavicle 3.15074e-014 9.54166e-015
rhumerus -39.7888 -8.04607 -76.1327
rradius 34.8998
rwrist 4.97624
rhand -3.26155 -23.207
rfingers 7.12502
rthumb 22.4629 -51.9207
lclavicle 3.15074e-014 9.54166e-015
lhumerus -27.6626 -10.0147 84.4732
lradius 29.1458
lwrist 9.62442
lhand -12.2973 -12.4826
lfingers 7.12502
lthumb 13.7705 17.0417
rfemur -10.4619 -1.98145 19.7526
rtibia 17.5487
rfoot -17.1965 -13.4616
rtoes -20.1672
lfemur -14.1739 -2.74607 -19.5211
ltibia 21.0482
lfoot -11.3246 -8.07435
ltoes 19.8516
156
root 10.8249 28.0592 37.7367 7.37245 3.23105 -0.861901
lowerback 0.171677 2.12982 1.22541
upperback 2.87756 2.87593 -2.03573
thorax 3.02709 1.49717 -2.70629
lowerneck 2.94668 -1.67183 -1.01351
upperneck 18.1427 -2.58633 2.72222
head 5.01519 -1.15639 0.930355
rclavicle 1.86858e-014 1.31198e-014
rhumerus -39.6921 -8.26532 -76.1524
rradius 34.9596
rwrist 4.58924
rhand -3.46913 -23.2546
rfingers 7.12502
rthumb 22.2637 -51.9922
lclavicle 1.86858e-014 1.31198e-014
lhumerus -27.6147 -10.0365 84.4323
lradius 28.7297
lwrist 9.56289
lhand -12.2627 -12.3533
lfingers 7.12502
lthumb 13.8039 17.1687
rfemur -10.984 -2.26875 19.4694
rtibia 18.3397
rfoot -17.1755 -13.0887
rtoes -18.8406
lfemur -14.0871 -2.71947 -19.765
ltibia 20.9027
lfoot -11.3392 -8.06141
ltoes 20.9306
157
root 10.8189 28.0624 37.7218 7.37817 3.04094 -0.700618
lowerback 0.272137 2.13498 0.915094
upperback 2.88576 2.88807 -2.07902
thorax 2.96592 1.49547 -2.5806
lowerneck 2.90991 -1.64183 -0.996491
upperneck 18.1299 -2.54655 2.72031
head 5.01624 -1.13626 0.92793
rclavicle -1.07344e-014 -2.10712e-014
rhumerus -39.551 -8.39719 -76.2386
rradius 34.9951
rwrist 4.32843
rhand -3.72246 -23.277
rfingers 7.12502
rthumb 22.0205 -52.0434
lclavicle -1.07344e-014 -2.10712e-014
lhumerus -27.6068 -9.90595 84.3424
lradius 28.3311
lwrist 9.50316
lhand -12.2413 -12.2552
lfingers 7.12502
lthumb 13.8245 17.2654
rfemur -11.4751 -2.53939 19.1834
rtibia 19.0746
rfoot -17.1639 -12.687
rtoes -17.6502
lfemur -13.9887 -2.65762 -20.0118
ltibia 20.7418
lfoot -11.3288 -8.04956
ltoes 21.8906
158
root 10.8112 28.066 37.7083 7.37414 2.85091 -0.542655
lowerback 0.362118 2.10905 0.570551
upperback 2.89744 2.85794 -2.10065
thorax 2.90926 1.47163 -2.41415
lowerneck 2.9209 -1.57856 -1.00792
upperneck 18.0584 -2.4585 2.70558
head 4.99039 -1.09625 0.92842
rclavicle 1.09332e-015 -2.74323e-014
rhumerus -39.3724 -8.43113 -76.3513
rradius 35.0089
rwrist 4.16777
rhand -3.9484 -23.1924
rfingers 7.12502
rthumb 21.8035 -51.9842
lclavicle 1.09332e-015 -2.74323e-014
lhumerus -27.6334 -9.61213 84.224
lradius 27.9453
lwrist 9.40729
lhand -12.2133 -12.1859
lfingers 7.12502
lthumb 13.8515 17.3328
rfemur -11.9149 -2.80018 18.9353
rtibia 19.7251
rfoot -17.1575 -12.2619
rtoes -16.8198
lfemur -13.8791 -2.57904 -20.2292
ltibia 20.5697
lfoot -11.2821 -8.05485
ltoes 22.902
159
root 10.8029 28.0698 37.6959 7.36347 2.67184 -0.425143
lowerback 0.444304 2.07987 0.271542
upperback 2.90522 2.82168 -2.09883
thorax 2.8542 1.44565 -2.24894
lowerneck 2.9757 -1.5084 -1.05531
upperneck 17.9477 -2.3601 2.69414
head 4.94533 -1.05393 0.936657
rclavicle 7.65321e-015 1.19271e-014
rhumerus -39.2161 -8.40553 -76.4502
rradius 35.0348
rwrist 4.06304
rhand -4.09472 -22.9924
rfingers 7.12502
rthumb 21.663 -51.8005
lclavicle 7.65321e-015 1.19271e-014
lhumerus -27.6827 -9.25132 84.1136
lradius 27.5579
lwrist 9.27495
lhand -12.1916 -12.1468
lfingers 7.12502
lthumb 13.8724 17.3706
rfemur -12.2971 -3.0377 18.7674
rtibia 20.2752
rfoot -17.1874 -11.8089
rtoes -16.344
lfemur -13.7703 -2.50492 -20.3785
ltibia 20.3961
lfoot -11.2165 -8.05309
ltoes 23.7983
160
root 10.7945 28.0739 37.6844 7.35333 2.51871 -0.367675
lowerback 0.517047 2.05325 0.0606732
upperback 2.90494 2.78689 -2.07746
thorax 2.79997 1.42242 -2.11265
lowerneck 3.05269 -1.43833 -1.11954
upperneck 17.824 -2.26125 2.68284
head 4.89276 -1.01255 0.947863
rclavicle 8.15017e-015 -2.78299e-015
rhumerus -39.0885 -8.34399 -76.5342
rradius 35.0704
rwrist 4.00019
rhand -4.14429 -22.7331
rfingers 7.12502
rthumb 21.6154 -51.5466
lclavicle 8.15017e-015 -2.78299e-015
lhumerus -27.7444 -8.88008 84.0143
lradius 27.1663
lwrist 9.12289
lhand -12.1889 -12.1233
lfingers 7.12502
lthumb 13.875 17.3939
rfemur -12.6235 -3.26843 18.705
rtibia 20.7019
rfoot -17.2266 -11.3411
rtoes -16.3425
lfemur -13.6779 -2.46447 -20.439
ltibia 20.2345
lfoot -11.1571 -8.02404
ltoes 24.4489
161
root 10.7861 28.0786 37.6738 7.35215 2.4026 -0.375467
lowerback 0.564662 1.99963 -0.0777446
upperback 2.89812 2.7145 -2.02151
thorax 2.75381 1.38177 -1.98121
lowerneck 3.09027 -1.34659 -1.21001
upperneck 17.7627 -2.13127 2.65059
head 4.86545 -0.957893 0.957544
rclavicle 1.14301e-014 2.62396e-014
rhumerus -38.9583 -8.15325 -76.6266
rradius 35.1067
rwrist 3.95299
rhand -4.09804 -22.4652
rfingers 7.12502
rthumb 21.6598 -51.2736
lclavicle 1.14301e-014 2.62396e-014
lhumerus -27.8256 -8.42169 83.9074
lradius 26.7785
lwrist 8.94571
lhand -12.2012 -12.1003
lfingers 7.12502
lthumb 13.8631 17.4177
rfemur -12.8927 -3.47664 18.7501
rtibia 20.9874
rfoot -17.2836 -10.8615
rtoes -16.602
lfemur -13.617 -2.46945 -20.4062
ltibia 20.0986
lfoot -11.1167 -7.97113
ltoes 24.9502
162
root 10.7774 28.0838 37.6642 7.36468 2.32761 -0.445936
lowerback 0.577923 1.92861 -0.14219
upperback 2.8922 2.61838 -1.95497
thorax 2.73053 1.33108 -1.87934
lowerneck 3.07061 -1.24581 -1.25824
upperneck 17.7684 -1.98748 2.59261
head 4.8674 -0.894287 0.952158
rclavicle -9.83984e-015 2.78299e-015
rhumerus -38.8367 -7.92474 -76.7526
rradius 35.1589
rwrist 3.95504
rhand -3.96587 -22.2323
rfingers 7.12502
rthumb 21.7867 -51.0261
lclavicle -9.83984e-015 2.78299e-015
lhumerus -27.9006 -7.96071 83.7657
lradius 26.4003
lwrist 8.76743
lhand -12.2085 -12.0638
lfingers 7.12502
lthumb 13.856 17.4546
rfemur -13.1059 -3.64803 18.8988
rtibia 21.1084
rfoot -17.3442 -10.4135
rtoes -16.9942
lfemur -13.5939 -2.5174 -20.28
ltibia 19.9884
lfoot -11.1052 -7.88348
ltoes 25.308
163
root 10.7679 28.0893 37.6554 7.38161 2.29681 -0.559488
lowerback 0.560846 1.82684 -0.170952
upperback 2.89818 2.48159 -1.88788
thorax 2.73731 1.26108 -1.79634
lowerneck 2.99833 -1.12947 -1.2281
upperneck 17.8198 -1.8196 2.49702
head 4.89082 -0.815525 0.922468
rclavicle -2.00773e-014 -9.54166e-015
rhumerus -38.6983 -7.62818 -76.9528
rradius 35.2296
rwrist 3.99538
rhand -3.78085 -22.0716
rfingers 7.12502
rthumb 21.9644 -50.8446
lclavicle -2.00773e-014 -9.54166e-015
lhumerus -27.9571 -7.47424 83.5545
lradius 26.0363
lwrist 8.58361
lhand -12.1848 -12.0138
lfingers 7.12502
lthumb 13.8789 17.5031
rfemur -13.2429 -3.77216 19.1255
rtibia 21.049
rfoot -17.4077 -10.033
rtoes -17.3522
lfemur -13.5928 -2.60124 -20.079
ltibia 19.8907
lfoot -11.1277 -7.74666
ltoes 25.3413
